<?xml version="1.0" encoding="UTF-8" standalone="no"?><svg xmlns="http://www.w3.org/2000/svg" xmlns:xlink="http://www.w3.org/1999/xlink" contentStyleType="text/css" height="679px" preserveAspectRatio="none" style="width:1516px;height:679px;background:#FFFFFF;" version="1.1" viewBox="0 0 1516 679" width="1516px" zoomAndPan="magnify"><defs/><g><!--MD5=[389cfdd66c45bd200a61dea7b81628c8]
class EventDto--><g id="elem_EventDto"><rect codeLine="1" fill="#F1F1F1" height="145.7813" id="EventDto" rx="2.5" ry="2.5" style="stroke:#181818;stroke-width:0.5;" width="166" x="129.5" y="15"/><ellipse cx="173.75" cy="31" fill="#ADD1B2" rx="11" ry="11" style="stroke:#181818;stroke-width:1.0;"/><path d="M176.0938,26.6719 C175.1563,26.2344 174.5625,26.0938 173.6875,26.0938 C171.0625,26.0938 169.0625,28.1719 169.0625,30.8906 L169.0625,32.0156 C169.0625,34.5938 171.1719,36.4844 174.0625,36.4844 C175.2813,36.4844 176.4375,36.1875 177.1875,35.6406 C177.7656,35.2344 178.0938,34.7813 178.0938,34.3906 C178.0938,33.9375 177.7031,33.5469 177.2344,33.5469 C177.0156,33.5469 176.8125,33.625 176.625,33.8125 C176.1719,34.2969 176.1719,34.2969 175.9844,34.3906 C175.5625,34.6563 174.875,34.7813 174.1094,34.7813 C172.0625,34.7813 170.7656,33.6875 170.7656,31.9844 L170.7656,30.8906 C170.7656,29.1094 172.0156,27.7969 173.75,27.7969 C174.3281,27.7969 174.9375,27.9531 175.4063,28.2031 C175.8906,28.4844 176.0625,28.7031 176.1563,29.1094 C176.2188,29.5156 176.25,29.6406 176.3906,29.7656 C176.5313,29.9063 176.7656,30.0156 176.9844,30.0156 C177.25,30.0156 177.5156,29.875 177.6875,29.6563 C177.7969,29.5 177.8281,29.3125 177.8281,28.8906 L177.8281,27.4688 C177.8281,27.0313 177.8125,26.9063 177.7188,26.75 C177.5625,26.4844 177.2813,26.3438 176.9844,26.3438 C176.6875,26.3438 176.4844,26.4375 176.2656,26.75 L176.0938,26.6719 Z " fill="#000000"/><text fill="#000000" font-family="sans-serif" font-size="14" lengthAdjust="spacing" textLength="69" x="194.25" y="35.8467">EventDto</text><line style="stroke:#181818;stroke-width:0.5;" x1="130.5" x2="294.5" y1="47" y2="47"/><ellipse cx="140.5" cy="60.6484" fill="none" rx="3" ry="3" style="stroke:#038048;stroke-width:1.0;"/><text fill="#000000" font-family="sans-serif" font-size="14" lengthAdjust="spacing" textLength="140" x="149.5" y="63.9951">event_name: string</text><ellipse cx="140.5" cy="76.9453" fill="none" rx="3" ry="3" style="stroke:#038048;stroke-width:1.0;"/><text fill="#000000" font-family="sans-serif" font-size="14" lengthAdjust="spacing" textLength="122" x="149.5" y="80.292">vehicle_id: string</text><ellipse cx="140.5" cy="93.2422" fill="none" rx="3" ry="3" style="stroke:#038048;stroke-width:1.0;"/><text fill="#000000" font-family="sans-serif" font-size="14" lengthAdjust="spacing" textLength="140" x="149.5" y="96.5889">vehicle_title: string</text><ellipse cx="140.5" cy="109.5391" fill="none" rx="3" ry="3" style="stroke:#038048;stroke-width:1.0;"/><text fill="#000000" font-family="sans-serif" font-size="14" lengthAdjust="spacing" textLength="108" x="149.5" y="112.8857">zipcode: string</text><ellipse cx="140.5" cy="125.8359" fill="none" rx="3" ry="3" style="stroke:#038048;stroke-width:1.0;"/><text fill="#000000" font-family="sans-serif" font-size="14" lengthAdjust="spacing" textLength="77" x="149.5" y="129.1826">date: Date</text><ellipse cx="140.5" cy="142.1328" fill="none" rx="3" ry="3" style="stroke:#038048;stroke-width:1.0;"/><text fill="#000000" font-family="sans-serif" font-size="14" lengthAdjust="spacing" textLength="125" x="149.5" y="145.4795">quantity: number</text><line style="stroke:#181818;stroke-width:0.5;" x1="130.5" x2="294.5" y1="152.7813" y2="152.7813"/></g><!--MD5=[ac13618b1a974308c1f12eb6c57723dc]
class Event--><g id="elem_Event"><rect codeLine="9" fill="#F1F1F1" height="80.5938" id="Event" rx="2.5" ry="2.5" style="stroke:#181818;stroke-width:0.5;" width="74" x="330.5" y="47.5"/><ellipse cx="345.5" cy="63.5" fill="#EB937F" rx="11" ry="11" style="stroke:#181818;stroke-width:1.0;"/><path d="M344.2969,64.375 L345.75,64.375 L345.75,64.4844 C345.75,64.8906 345.7813,65.0469 345.8594,65.2031 C346.0156,65.4531 346.2969,65.6094 346.5938,65.6094 C346.8438,65.6094 347.1094,65.4688 347.2656,65.25 C347.3906,65.0938 347.4219,64.9375 347.4219,64.4844 L347.4219,62.5625 C347.4219,62.4063 347.4219,62.3594 347.4063,62.2031 C347.3438,61.7344 347.0313,61.4219 346.5781,61.4219 C346.3281,61.4219 346.0625,61.5625 345.8906,61.7813 C345.7813,61.9531 345.75,62.1094 345.75,62.5625 L345.75,62.6875 L344.2969,62.6875 L344.2969,60.2813 L348.2813,60.2813 L348.2813,61.1406 C348.2813,61.5469 348.3125,61.7188 348.3906,61.875 C348.5625,62.125 348.8438,62.2813 349.125,62.2813 C349.3906,62.2813 349.6563,62.1406 349.8281,61.9219 C349.9375,61.75 349.9688,61.6094 349.9688,61.1406 L349.9688,58.5938 L342.3438,58.5938 C341.9063,58.5938 341.7813,58.6094 341.625,58.7031 C341.375,58.8594 341.2188,59.1563 341.2188,59.4375 C341.2188,59.7188 341.3594,59.9688 341.5781,60.1406 C341.7344,60.25 341.9219,60.2813 342.3438,60.2813 L342.5938,60.2813 L342.5938,66.7969 L342.3438,66.7969 C341.9375,66.7969 341.7813,66.8125 341.625,66.9219 C341.375,67.0938 341.2188,67.3594 341.2188,67.6563 C341.2188,67.9219 341.3594,68.1719 341.5781,68.3281 C341.7188,68.4531 341.9531,68.5 342.3438,68.5 L350.3438,68.5 L350.3438,65.9219 C350.3438,65.4844 350.3125,65.3438 350.2344,65.1875 C350.0625,64.9375 349.7813,64.7813 349.5,64.7813 C349.2344,64.7813 348.9688,64.8906 348.7969,65.1406 C348.6875,65.2969 348.6563,65.4375 348.6563,65.9219 L348.6563,66.7969 L344.2969,66.7969 L344.2969,64.375 Z " fill="#000000"/><text fill="#000000" font-family="sans-serif" font-size="14" lengthAdjust="spacing" textLength="42" x="359.5" y="68.3467">Event</text><line style="stroke:#181818;stroke-width:0.5;" x1="331.5" x2="403.5" y1="79.5" y2="79.5"/><text fill="#000000" font-family="sans-serif" font-size="14" lengthAdjust="spacing" textLength="44" x="336.5" y="96.4951">DRIVE</text><text fill="#000000" font-family="sans-serif" font-size="14" lengthAdjust="spacing" textLength="61" x="336.5" y="112.792">SERVICE</text><line style="stroke:#181818;stroke-width:0.5;" x1="331.5" x2="403.5" y1="120.0938" y2="120.0938"/></g><!--MD5=[4560952580f33d8a2a21c7d05538c7f7]
class EventsEntity--><g id="elem_EventsEntity"><rect codeLine="13" fill="#F1F1F1" height="162.0781" id="EventsEntity" rx="2.5" ry="2.5" style="stroke:#181818;stroke-width:0.5;" width="166" x="439.5" y="7"/><ellipse cx="472.95" cy="23" fill="#ADD1B2" rx="11" ry="11" style="stroke:#181818;stroke-width:1.0;"/><path d="M475.2938,18.6719 C474.3563,18.2344 473.7625,18.0938 472.8875,18.0938 C470.2625,18.0938 468.2625,20.1719 468.2625,22.8906 L468.2625,24.0156 C468.2625,26.5938 470.3719,28.4844 473.2625,28.4844 C474.4813,28.4844 475.6375,28.1875 476.3875,27.6406 C476.9656,27.2344 477.2938,26.7813 477.2938,26.3906 C477.2938,25.9375 476.9031,25.5469 476.4344,25.5469 C476.2156,25.5469 476.0125,25.625 475.825,25.8125 C475.3719,26.2969 475.3719,26.2969 475.1844,26.3906 C474.7625,26.6563 474.075,26.7813 473.3094,26.7813 C471.2625,26.7813 469.9656,25.6875 469.9656,23.9844 L469.9656,22.8906 C469.9656,21.1094 471.2156,19.7969 472.95,19.7969 C473.5281,19.7969 474.1375,19.9531 474.6063,20.2031 C475.0906,20.4844 475.2625,20.7031 475.3563,21.1094 C475.4188,21.5156 475.45,21.6406 475.5906,21.7656 C475.7313,21.9063 475.9656,22.0156 476.1844,22.0156 C476.45,22.0156 476.7156,21.875 476.8875,21.6563 C476.9969,21.5 477.0281,21.3125 477.0281,20.8906 L477.0281,19.4688 C477.0281,19.0313 477.0125,18.9063 476.9188,18.75 C476.7625,18.4844 476.4813,18.3438 476.1844,18.3438 C475.8875,18.3438 475.6844,18.4375 475.4656,18.75 L475.2938,18.6719 Z " fill="#000000"/><text fill="#000000" font-family="sans-serif" font-size="14" lengthAdjust="spacing" textLength="93" x="491.05" y="27.8467">EventsEntity</text><line style="stroke:#181818;stroke-width:0.5;" x1="440.5" x2="604.5" y1="39" y2="39"/><ellipse cx="450.5" cy="52.6484" fill="none" rx="3" ry="3" style="stroke:#038048;stroke-width:1.0;"/><text fill="#000000" font-family="sans-serif" font-size="14" lengthAdjust="spacing" textLength="64" x="459.5" y="55.9951">id: string</text><ellipse cx="450.5" cy="68.9453" fill="none" rx="3" ry="3" style="stroke:#038048;stroke-width:1.0;"/><text fill="#000000" font-family="sans-serif" font-size="14" lengthAdjust="spacing" textLength="140" x="459.5" y="72.292">event_name: string</text><ellipse cx="450.5" cy="85.2422" fill="none" rx="3" ry="3" style="stroke:#038048;stroke-width:1.0;"/><text fill="#000000" font-family="sans-serif" font-size="14" lengthAdjust="spacing" textLength="122" x="459.5" y="88.5889">vehicle_id: string</text><ellipse cx="450.5" cy="101.5391" fill="none" rx="3" ry="3" style="stroke:#038048;stroke-width:1.0;"/><text fill="#000000" font-family="sans-serif" font-size="14" lengthAdjust="spacing" textLength="140" x="459.5" y="104.8857">vehicle_title: string</text><ellipse cx="450.5" cy="117.8359" fill="none" rx="3" ry="3" style="stroke:#038048;stroke-width:1.0;"/><text fill="#000000" font-family="sans-serif" font-size="14" lengthAdjust="spacing" textLength="108" x="459.5" y="121.1826">zipcode: string</text><ellipse cx="450.5" cy="134.1328" fill="none" rx="3" ry="3" style="stroke:#038048;stroke-width:1.0;"/><text fill="#000000" font-family="sans-serif" font-size="14" lengthAdjust="spacing" textLength="77" x="459.5" y="137.4795">date: Date</text><ellipse cx="450.5" cy="150.4297" fill="none" rx="3" ry="3" style="stroke:#038048;stroke-width:1.0;"/><text fill="#000000" font-family="sans-serif" font-size="14" lengthAdjust="spacing" textLength="125" x="459.5" y="153.7764">quantity: number</text><line style="stroke:#181818;stroke-width:0.5;" x1="440.5" x2="604.5" y1="161.0781" y2="161.0781"/></g><!--MD5=[5fde9639710cd5e976eb57fc6de0742a]
class EventNormalizer--><g id="elem_EventNormalizer"><rect codeLine="22" fill="#F1F1F1" height="162.0781" id="EventNormalizer" rx="2.5" ry="2.5" style="stroke:#181818;stroke-width:0.5;" width="185" x="641" y="7"/><ellipse cx="670.85" cy="23" fill="#ADD1B2" rx="11" ry="11" style="stroke:#181818;stroke-width:1.0;"/><path d="M673.1938,18.6719 C672.2563,18.2344 671.6625,18.0938 670.7875,18.0938 C668.1625,18.0938 666.1625,20.1719 666.1625,22.8906 L666.1625,24.0156 C666.1625,26.5938 668.2719,28.4844 671.1625,28.4844 C672.3813,28.4844 673.5375,28.1875 674.2875,27.6406 C674.8656,27.2344 675.1938,26.7813 675.1938,26.3906 C675.1938,25.9375 674.8031,25.5469 674.3344,25.5469 C674.1156,25.5469 673.9125,25.625 673.725,25.8125 C673.2719,26.2969 673.2719,26.2969 673.0844,26.3906 C672.6625,26.6563 671.975,26.7813 671.2094,26.7813 C669.1625,26.7813 667.8656,25.6875 667.8656,23.9844 L667.8656,22.8906 C667.8656,21.1094 669.1156,19.7969 670.85,19.7969 C671.4281,19.7969 672.0375,19.9531 672.5063,20.2031 C672.9906,20.4844 673.1625,20.7031 673.2563,21.1094 C673.3188,21.5156 673.35,21.6406 673.4906,21.7656 C673.6313,21.9063 673.8656,22.0156 674.0844,22.0156 C674.35,22.0156 674.6156,21.875 674.7875,21.6563 C674.8969,21.5 674.9281,21.3125 674.9281,20.8906 L674.9281,19.4688 C674.9281,19.0313 674.9125,18.9063 674.8188,18.75 C674.6625,18.4844 674.3813,18.3438 674.0844,18.3438 C673.7875,18.3438 673.5844,18.4375 673.3656,18.75 L673.1938,18.6719 Z " fill="#000000"/><text fill="#000000" font-family="sans-serif" font-size="14" lengthAdjust="spacing" textLength="120" x="688.15" y="27.8467">EventNormalizer</text><line style="stroke:#181818;stroke-width:0.5;" x1="642" x2="825" y1="39" y2="39"/><rect fill="none" height="6" style="stroke:#C82930;stroke-width:1.0;" width="6" x="649" y="49.6484"/><text fill="#000000" font-family="sans-serif" font-size="14" lengthAdjust="spacing" textLength="140" x="661" y="55.9951">event_name: string</text><rect fill="none" height="6" style="stroke:#C82930;stroke-width:1.0;" width="6" x="649" y="65.9453"/><text fill="#000000" font-family="sans-serif" font-size="14" lengthAdjust="spacing" textLength="122" x="661" y="72.292">vehicle_id: string</text><rect fill="none" height="6" style="stroke:#C82930;stroke-width:1.0;" width="6" x="649" y="82.2422"/><text fill="#000000" font-family="sans-serif" font-size="14" lengthAdjust="spacing" textLength="140" x="661" y="88.5889">vehicle_title: string</text><rect fill="none" height="6" style="stroke:#C82930;stroke-width:1.0;" width="6" x="649" y="98.5391"/><text fill="#000000" font-family="sans-serif" font-size="14" lengthAdjust="spacing" textLength="108" x="661" y="104.8857">zipcode: string</text><rect fill="none" height="6" style="stroke:#C82930;stroke-width:1.0;" width="6" x="649" y="114.8359"/><text fill="#000000" font-family="sans-serif" font-size="14" lengthAdjust="spacing" textLength="77" x="661" y="121.1826">date: Date</text><rect fill="none" height="6" style="stroke:#C82930;stroke-width:1.0;" width="6" x="649" y="131.1328"/><text fill="#000000" font-family="sans-serif" font-size="14" lengthAdjust="spacing" textLength="125" x="661" y="137.4795">quantity: number</text><line style="stroke:#181818;stroke-width:0.5;" x1="642" x2="825" y1="144.7813" y2="144.7813"/><ellipse cx="652" cy="158.4297" fill="#84BE84" rx="3" ry="3" style="stroke:#038048;stroke-width:1.0;"/><text fill="#000000" font-family="sans-serif" font-size="14" lengthAdjust="spacing" textLength="159" x="661" y="161.7764">normalize(): EventDto</text></g><!--MD5=[f1dcf37c6f62502c992e6360b7878bc2]
class EventSummaryDto--><g id="elem_EventSummaryDto"><rect codeLine="31" fill="#F1F1F1" height="113.1875" id="EventSummaryDto" rx="2.5" ry="2.5" style="stroke:#181818;stroke-width:0.5;" width="168" x="128.5" y="245.5"/><ellipse cx="143.5" cy="261.5" fill="#ADD1B2" rx="11" ry="11" style="stroke:#181818;stroke-width:1.0;"/><path d="M145.8438,257.1719 C144.9063,256.7344 144.3125,256.5938 143.4375,256.5938 C140.8125,256.5938 138.8125,258.6719 138.8125,261.3906 L138.8125,262.5156 C138.8125,265.0938 140.9219,266.9844 143.8125,266.9844 C145.0313,266.9844 146.1875,266.6875 146.9375,266.1406 C147.5156,265.7344 147.8438,265.2813 147.8438,264.8906 C147.8438,264.4375 147.4531,264.0469 146.9844,264.0469 C146.7656,264.0469 146.5625,264.125 146.375,264.3125 C145.9219,264.7969 145.9219,264.7969 145.7344,264.8906 C145.3125,265.1563 144.625,265.2813 143.8594,265.2813 C141.8125,265.2813 140.5156,264.1875 140.5156,262.4844 L140.5156,261.3906 C140.5156,259.6094 141.7656,258.2969 143.5,258.2969 C144.0781,258.2969 144.6875,258.4531 145.1563,258.7031 C145.6406,258.9844 145.8125,259.2031 145.9063,259.6094 C145.9688,260.0156 146,260.1406 146.1406,260.2656 C146.2813,260.4063 146.5156,260.5156 146.7344,260.5156 C147,260.5156 147.2656,260.375 147.4375,260.1563 C147.5469,260 147.5781,259.8125 147.5781,259.3906 L147.5781,257.9688 C147.5781,257.5313 147.5625,257.4063 147.4688,257.25 C147.3125,256.9844 147.0313,256.8438 146.7344,256.8438 C146.4375,256.8438 146.2344,256.9375 146.0156,257.25 L145.8438,257.1719 Z " fill="#000000"/><text fill="#000000" font-family="sans-serif" font-size="14" lengthAdjust="spacing" textLength="136" x="157.5" y="266.3467">EventSummaryDto</text><line style="stroke:#181818;stroke-width:0.5;" x1="129.5" x2="295.5" y1="277.5" y2="277.5"/><ellipse cx="139.5" cy="291.1484" fill="none" rx="3" ry="3" style="stroke:#038048;stroke-width:1.0;"/><text fill="#000000" font-family="sans-serif" font-size="14" lengthAdjust="spacing" textLength="122" x="148.5" y="294.4951">vehicle_id: string</text><ellipse cx="139.5" cy="307.4453" fill="none" rx="3" ry="3" style="stroke:#038048;stroke-width:1.0;"/><text fill="#000000" font-family="sans-serif" font-size="14" lengthAdjust="spacing" textLength="140" x="148.5" y="310.792">vehicle_title: string</text><ellipse cx="139.5" cy="323.7422" fill="none" rx="3" ry="3" style="stroke:#038048;stroke-width:1.0;"/><text fill="#000000" font-family="sans-serif" font-size="14" lengthAdjust="spacing" textLength="108" x="148.5" y="327.0889">zipcode: string</text><ellipse cx="139.5" cy="340.0391" fill="none" rx="3" ry="3" style="stroke:#038048;stroke-width:1.0;"/><text fill="#000000" font-family="sans-serif" font-size="14" lengthAdjust="spacing" textLength="125" x="148.5" y="343.3857">quantity: number</text><line style="stroke:#181818;stroke-width:0.5;" x1="129.5" x2="295.5" y1="350.6875" y2="350.6875"/></g><!--MD5=[5b980cc8756cacab1eedbd67fad62656]
class VehicleEventService--><g id="elem_VehicleEventService"><rect codeLine="37" fill="#F1F1F1" height="113.1875" id="VehicleEventService" rx="2.5" ry="2.5" style="stroke:#181818;stroke-width:0.5;" width="432" x="331.5" y="245.5"/><ellipse cx="469.25" cy="261.5" fill="#ADD1B2" rx="11" ry="11" style="stroke:#181818;stroke-width:1.0;"/><path d="M471.5938,257.1719 C470.6563,256.7344 470.0625,256.5938 469.1875,256.5938 C466.5625,256.5938 464.5625,258.6719 464.5625,261.3906 L464.5625,262.5156 C464.5625,265.0938 466.6719,266.9844 469.5625,266.9844 C470.7813,266.9844 471.9375,266.6875 472.6875,266.1406 C473.2656,265.7344 473.5938,265.2813 473.5938,264.8906 C473.5938,264.4375 473.2031,264.0469 472.7344,264.0469 C472.5156,264.0469 472.3125,264.125 472.125,264.3125 C471.6719,264.7969 471.6719,264.7969 471.4844,264.8906 C471.0625,265.1563 470.375,265.2813 469.6094,265.2813 C467.5625,265.2813 466.2656,264.1875 466.2656,262.4844 L466.2656,261.3906 C466.2656,259.6094 467.5156,258.2969 469.25,258.2969 C469.8281,258.2969 470.4375,258.4531 470.9063,258.7031 C471.3906,258.9844 471.5625,259.2031 471.6563,259.6094 C471.7188,260.0156 471.75,260.1406 471.8906,260.2656 C472.0313,260.4063 472.2656,260.5156 472.4844,260.5156 C472.75,260.5156 473.0156,260.375 473.1875,260.1563 C473.2969,260 473.3281,259.8125 473.3281,259.3906 L473.3281,257.9688 C473.3281,257.5313 473.3125,257.4063 473.2188,257.25 C473.0625,256.9844 472.7813,256.8438 472.4844,256.8438 C472.1875,256.8438 471.9844,256.9375 471.7656,257.25 L471.5938,257.1719 Z " fill="#000000"/><text fill="#000000" font-family="sans-serif" font-size="14" lengthAdjust="spacing" textLength="148" x="489.75" y="266.3467">VehicleEventService</text><line style="stroke:#181818;stroke-width:0.5;" x1="332.5" x2="762.5" y1="277.5" y2="277.5"/><rect fill="none" height="6" style="stroke:#C82930;stroke-width:1.0;" width="6" x="339.5" y="288.1484"/><text fill="#000000" font-family="sans-serif" font-size="14" lengthAdjust="spacing" textLength="326" x="351.5" y="294.4951">entityRepository: Repository&lt;EventsEntity&gt;</text><rect fill="none" height="6" style="stroke:#C82930;stroke-width:1.0;" width="6" x="339.5" y="304.4453"/><text fill="#000000" font-family="sans-serif" font-size="14" lengthAdjust="spacing" textLength="219" x="351.5" y="310.792">entityManager: EntityManager</text><line style="stroke:#181818;stroke-width:0.5;" x1="332.5" x2="762.5" y1="318.0938" y2="318.0938"/><ellipse cx="342.5" cy="331.7422" fill="#84BE84" rx="3" ry="3" style="stroke:#038048;stroke-width:1.0;"/><text fill="#000000" font-family="sans-serif" font-size="14" lengthAdjust="spacing" textLength="337" x="351.5" y="335.0889">create(entity: EventDto): Promise&lt;EventDto&gt;</text><ellipse cx="342.5" cy="348.0391" fill="#84BE84" rx="3" ry="3" style="stroke:#038048;stroke-width:1.0;"/><text fill="#000000" font-family="sans-serif" font-size="14" lengthAdjust="spacing" textLength="406" x="351.5" y="351.3857">totalBefore(date: Date): Promise&lt;EventSummaryDto[]&gt;</text></g><!--MD5=[1406ff226baa1f04c6648785b47b6e62]
class EventSourceService--><g id="elem_EventSourceService"><rect codeLine="43" fill="#F1F1F1" height="145.7813" id="EventSourceService" rx="2.5" ry="2.5" style="stroke:#181818;stroke-width:0.5;" width="352" x="798.5" y="229"/><ellipse cx="898.25" cy="245" fill="#ADD1B2" rx="11" ry="11" style="stroke:#181818;stroke-width:1.0;"/><path d="M900.5938,240.6719 C899.6563,240.2344 899.0625,240.0938 898.1875,240.0938 C895.5625,240.0938 893.5625,242.1719 893.5625,244.8906 L893.5625,246.0156 C893.5625,248.5938 895.6719,250.4844 898.5625,250.4844 C899.7813,250.4844 900.9375,250.1875 901.6875,249.6406 C902.2656,249.2344 902.5938,248.7813 902.5938,248.3906 C902.5938,247.9375 902.2031,247.5469 901.7344,247.5469 C901.5156,247.5469 901.3125,247.625 901.125,247.8125 C900.6719,248.2969 900.6719,248.2969 900.4844,248.3906 C900.0625,248.6563 899.375,248.7813 898.6094,248.7813 C896.5625,248.7813 895.2656,247.6875 895.2656,245.9844 L895.2656,244.8906 C895.2656,243.1094 896.5156,241.7969 898.25,241.7969 C898.8281,241.7969 899.4375,241.9531 899.9063,242.2031 C900.3906,242.4844 900.5625,242.7031 900.6563,243.1094 C900.7188,243.5156 900.75,243.6406 900.8906,243.7656 C901.0313,243.9063 901.2656,244.0156 901.4844,244.0156 C901.75,244.0156 902.0156,243.875 902.1875,243.6563 C902.2969,243.5 902.3281,243.3125 902.3281,242.8906 L902.3281,241.4688 C902.3281,241.0313 902.3125,240.9063 902.2188,240.75 C902.0625,240.4844 901.7813,240.3438 901.4844,240.3438 C901.1875,240.3438 900.9844,240.4375 900.7656,240.75 L900.5938,240.6719 Z " fill="#000000"/><text fill="#000000" font-family="sans-serif" font-size="14" lengthAdjust="spacing" textLength="144" x="918.75" y="249.8467">EventSourceService</text><line style="stroke:#181818;stroke-width:0.5;" x1="799.5" x2="1149.5" y1="261" y2="261"/><rect fill="none" height="6" style="stroke:#C82930;stroke-width:1.0;" width="6" x="806.5" y="271.6484"/><text fill="#000000" font-family="sans-serif" font-size="14" lengthAdjust="spacing" textLength="303" x="818.5" y="277.9951">vehicleEventService: VehicleEventService</text><rect fill="none" height="6" style="stroke:#C82930;stroke-width:1.0;" width="6" x="806.5" y="287.9453"/><text fill="#000000" font-family="sans-serif" font-size="14" lengthAdjust="spacing" textLength="326" x="818.5" y="294.292">entityRepository: Repository&lt;EventsEntity&gt;</text><rect fill="none" height="6" style="stroke:#C82930;stroke-width:1.0;" width="6" x="806.5" y="304.2422"/><text fill="#000000" font-family="sans-serif" font-size="14" lengthAdjust="spacing" textLength="213" x="818.5" y="310.5889">eventEmitter: EventEmitter2</text><line style="stroke:#181818;stroke-width:0.5;" x1="799.5" x2="1149.5" y1="317.8906" y2="317.8906"/><ellipse cx="809.5" cy="331.5391" fill="#84BE84" rx="3" ry="3" style="stroke:#038048;stroke-width:1.0;"/><text fill="#000000" font-family="sans-serif" font-size="14" lengthAdjust="spacing" textLength="193" x="818.5" y="334.8857">validate(filePath: any): this</text><ellipse cx="809.5" cy="347.8359" fill="#84BE84" rx="3" ry="3" style="stroke:#038048;stroke-width:1.0;"/><text fill="#000000" font-family="sans-serif" font-size="14" lengthAdjust="spacing" textLength="317" x="818.5" y="351.1826">extract(filePath: string): Promise&lt;boolean&gt;</text><rect fill="#F24D5C" height="6" style="stroke:#C82930;stroke-width:1.0;" width="6" x="806.5" y="361.1328"/><text fill="#000000" font-family="sans-serif" font-size="14" lengthAdjust="spacing" textLength="281" x="818.5" y="367.4795">dispatchRow(row: any): Promise&lt;void&gt;</text></g><!--MD5=[878d5c40358195a51708109cb02ed01d]
class EventFacadeService--><g id="elem_EventFacadeService"><rect codeLine="51" fill="#F1F1F1" height="80.5938" id="EventFacadeService" rx="2.5" ry="2.5" style="stroke:#181818;stroke-width:0.5;" width="323" x="1186" y="261.5"/><ellipse cx="1270.75" cy="277.5" fill="#ADD1B2" rx="11" ry="11" style="stroke:#181818;stroke-width:1.0;"/><path d="M1273.0938,273.1719 C1272.1563,272.7344 1271.5625,272.5938 1270.6875,272.5938 C1268.0625,272.5938 1266.0625,274.6719 1266.0625,277.3906 L1266.0625,278.5156 C1266.0625,281.0938 1268.1719,282.9844 1271.0625,282.9844 C1272.2813,282.9844 1273.4375,282.6875 1274.1875,282.1406 C1274.7656,281.7344 1275.0938,281.2813 1275.0938,280.8906 C1275.0938,280.4375 1274.7031,280.0469 1274.2344,280.0469 C1274.0156,280.0469 1273.8125,280.125 1273.625,280.3125 C1273.1719,280.7969 1273.1719,280.7969 1272.9844,280.8906 C1272.5625,281.1563 1271.875,281.2813 1271.1094,281.2813 C1269.0625,281.2813 1267.7656,280.1875 1267.7656,278.4844 L1267.7656,277.3906 C1267.7656,275.6094 1269.0156,274.2969 1270.75,274.2969 C1271.3281,274.2969 1271.9375,274.4531 1272.4063,274.7031 C1272.8906,274.9844 1273.0625,275.2031 1273.1563,275.6094 C1273.2188,276.0156 1273.25,276.1406 1273.3906,276.2656 C1273.5313,276.4063 1273.7656,276.5156 1273.9844,276.5156 C1274.25,276.5156 1274.5156,276.375 1274.6875,276.1563 C1274.7969,276 1274.8281,275.8125 1274.8281,275.3906 L1274.8281,273.9688 C1274.8281,273.5313 1274.8125,273.4063 1274.7188,273.25 C1274.5625,272.9844 1274.2813,272.8438 1273.9844,272.8438 C1273.6875,272.8438 1273.4844,272.9375 1273.2656,273.25 L1273.0938,273.1719 Z " fill="#000000"/><text fill="#000000" font-family="sans-serif" font-size="14" lengthAdjust="spacing" textLength="145" x="1291.25" y="282.3467">EventFacadeService</text><line style="stroke:#181818;stroke-width:0.5;" x1="1187" x2="1508" y1="293.5" y2="293.5"/><rect fill="none" height="6" style="stroke:#C82930;stroke-width:1.0;" width="6" x="1194" y="304.1484"/><text fill="#000000" font-family="sans-serif" font-size="14" lengthAdjust="spacing" textLength="297" x="1206" y="310.4951">eventSourceService: EventSourceService</text><line style="stroke:#181818;stroke-width:0.5;" x1="1187" x2="1508" y1="317.7969" y2="317.7969"/><ellipse cx="1197" cy="331.4453" fill="#84BE84" rx="3" ry="3" style="stroke:#038048;stroke-width:1.0;"/><text fill="#000000" font-family="sans-serif" font-size="14" lengthAdjust="spacing" textLength="282" x="1206" y="334.792">fill(filePath: string): Promise&lt;boolean&gt;</text></g><!--MD5=[4cde18298ff332750b1cc0d306bf94dd]
class FormatHelper--><g id="elem_FormatHelper"><rect codeLine="55" fill="#F1F1F1" height="64.2969" id="FormatHelper" rx="2.5" ry="2.5" style="stroke:#181818;stroke-width:0.5;" width="411" x="7" y="467.5"/><ellipse cx="158.25" cy="483.5" fill="#ADD1B2" rx="11" ry="11" style="stroke:#181818;stroke-width:1.0;"/><path d="M160.5938,479.1719 C159.6563,478.7344 159.0625,478.5938 158.1875,478.5938 C155.5625,478.5938 153.5625,480.6719 153.5625,483.3906 L153.5625,484.5156 C153.5625,487.0938 155.6719,488.9844 158.5625,488.9844 C159.7813,488.9844 160.9375,488.6875 161.6875,488.1406 C162.2656,487.7344 162.5938,487.2813 162.5938,486.8906 C162.5938,486.4375 162.2031,486.0469 161.7344,486.0469 C161.5156,486.0469 161.3125,486.125 161.125,486.3125 C160.6719,486.7969 160.6719,486.7969 160.4844,486.8906 C160.0625,487.1563 159.375,487.2813 158.6094,487.2813 C156.5625,487.2813 155.2656,486.1875 155.2656,484.4844 L155.2656,483.3906 C155.2656,481.6094 156.5156,480.2969 158.25,480.2969 C158.8281,480.2969 159.4375,480.4531 159.9063,480.7031 C160.3906,480.9844 160.5625,481.2031 160.6563,481.6094 C160.7188,482.0156 160.75,482.1406 160.8906,482.2656 C161.0313,482.4063 161.2656,482.5156 161.4844,482.5156 C161.75,482.5156 162.0156,482.375 162.1875,482.1563 C162.2969,482 162.3281,481.8125 162.3281,481.3906 L162.3281,479.9688 C162.3281,479.5313 162.3125,479.4063 162.2188,479.25 C162.0625,478.9844 161.7813,478.8438 161.4844,478.8438 C161.1875,478.8438 160.9844,478.9375 160.7656,479.25 L160.5938,479.1719 Z " fill="#000000"/><text fill="#000000" font-family="sans-serif" font-size="14" lengthAdjust="spacing" textLength="100" x="178.75" y="488.3467">FormatHelper</text><line style="stroke:#181818;stroke-width:0.5;" x1="8" x2="417" y1="499.5" y2="499.5"/><line style="stroke:#181818;stroke-width:0.5;" x1="8" x2="417" y1="507.5" y2="507.5"/><ellipse cx="18" cy="521.1484" fill="#84BE84" rx="3" ry="3" style="stroke:#038048;stroke-width:1.0;"/><text fill="#000000" font-family="sans-serif" font-size="14" lengthAdjust="spacing" textLength="385" x="27" y="524.4951">toString(eventData: EventSummaryDto): string | void</text></g><!--MD5=[11f3cbd4b2a7b09653fc844dc16cbe7e]
class VehicleEventCommand--><g id="elem_VehicleEventCommand"><rect codeLine="58" fill="#F1F1F1" height="129.4844" id="VehicleEventCommand" rx="2.5" ry="2.5" style="stroke:#181818;stroke-width:0.5;" width="384" x="453.5" y="435"/><ellipse cx="557.25" cy="451" fill="#ADD1B2" rx="11" ry="11" style="stroke:#181818;stroke-width:1.0;"/><path d="M559.5938,446.6719 C558.6563,446.2344 558.0625,446.0938 557.1875,446.0938 C554.5625,446.0938 552.5625,448.1719 552.5625,450.8906 L552.5625,452.0156 C552.5625,454.5938 554.6719,456.4844 557.5625,456.4844 C558.7813,456.4844 559.9375,456.1875 560.6875,455.6406 C561.2656,455.2344 561.5938,454.7813 561.5938,454.3906 C561.5938,453.9375 561.2031,453.5469 560.7344,453.5469 C560.5156,453.5469 560.3125,453.625 560.125,453.8125 C559.6719,454.2969 559.6719,454.2969 559.4844,454.3906 C559.0625,454.6563 558.375,454.7813 557.6094,454.7813 C555.5625,454.7813 554.2656,453.6875 554.2656,451.9844 L554.2656,450.8906 C554.2656,449.1094 555.5156,447.7969 557.25,447.7969 C557.8281,447.7969 558.4375,447.9531 558.9063,448.2031 C559.3906,448.4844 559.5625,448.7031 559.6563,449.1094 C559.7188,449.5156 559.75,449.6406 559.8906,449.7656 C560.0313,449.9063 560.2656,450.0156 560.4844,450.0156 C560.75,450.0156 561.0156,449.875 561.1875,449.6563 C561.2969,449.5 561.3281,449.3125 561.3281,448.8906 L561.3281,447.4688 C561.3281,447.0313 561.3125,446.9063 561.2188,446.75 C561.0625,446.4844 560.7813,446.3438 560.4844,446.3438 C560.1875,446.3438 559.9844,446.4375 559.7656,446.75 L559.5938,446.6719 Z " fill="#000000"/><text fill="#000000" font-family="sans-serif" font-size="14" lengthAdjust="spacing" textLength="168" x="577.75" y="455.8467">VehicleEventCommand</text><line style="stroke:#181818;stroke-width:0.5;" x1="454.5" x2="836.5" y1="467" y2="467"/><rect fill="none" height="6" style="stroke:#C82930;stroke-width:1.0;" width="6" x="461.5" y="477.6484"/><text fill="#000000" font-family="sans-serif" font-size="14" lengthAdjust="spacing" textLength="246" x="473.5" y="483.9951">eventFacade: EventFacadeService</text><rect fill="none" height="6" style="stroke:#C82930;stroke-width:1.0;" width="6" x="461.5" y="493.9453"/><text fill="#000000" font-family="sans-serif" font-size="14" lengthAdjust="spacing" textLength="303" x="473.5" y="500.292">vehicleEventService: VehicleEventService</text><rect fill="none" height="6" style="stroke:#C82930;stroke-width:1.0;" width="6" x="461.5" y="510.2422"/><text fill="#000000" font-family="sans-serif" font-size="14" lengthAdjust="spacing" textLength="207" x="473.5" y="516.5889">formatHelper: FormatHelper</text><line style="stroke:#181818;stroke-width:0.5;" x1="454.5" x2="836.5" y1="523.8906" y2="523.8906"/><ellipse cx="464.5" cy="537.5391" fill="#84BE84" rx="3" ry="3" style="stroke:#038048;stroke-width:1.0;"/><text fill="#000000" font-family="sans-serif" font-size="14" lengthAdjust="spacing" textLength="358" x="473.5" y="540.8857">run(filename: string, date: string): Promise&lt;void&gt;</text><rect fill="#F24D5C" height="6" style="stroke:#C82930;stroke-width:1.0;" width="6" x="461.5" y="550.8359"/><text fill="#000000" font-family="sans-serif" font-size="14" lengthAdjust="spacing" text-decoration="underline" textLength="189" x="473.5" y="557.1826">sanitize(input: any): string</text></g><!--MD5=[ecdbb15a2acfa0e3d33e8735d43ccad6]
class VehicleEventListener--><g id="elem_VehicleEventListener"><rect codeLine="65" fill="#F1F1F1" height="80.5938" id="VehicleEventListener" rx="2.5" ry="2.5" style="stroke:#181818;stroke-width:0.5;" width="365" x="873" y="459"/><ellipse cx="974.25" cy="475" fill="#ADD1B2" rx="11" ry="11" style="stroke:#181818;stroke-width:1.0;"/><path d="M976.5938,470.6719 C975.6563,470.2344 975.0625,470.0938 974.1875,470.0938 C971.5625,470.0938 969.5625,472.1719 969.5625,474.8906 L969.5625,476.0156 C969.5625,478.5938 971.6719,480.4844 974.5625,480.4844 C975.7813,480.4844 976.9375,480.1875 977.6875,479.6406 C978.2656,479.2344 978.5938,478.7813 978.5938,478.3906 C978.5938,477.9375 978.2031,477.5469 977.7344,477.5469 C977.5156,477.5469 977.3125,477.625 977.125,477.8125 C976.6719,478.2969 976.6719,478.2969 976.4844,478.3906 C976.0625,478.6563 975.375,478.7813 974.6094,478.7813 C972.5625,478.7813 971.2656,477.6875 971.2656,475.9844 L971.2656,474.8906 C971.2656,473.1094 972.5156,471.7969 974.25,471.7969 C974.8281,471.7969 975.4375,471.9531 975.9063,472.2031 C976.3906,472.4844 976.5625,472.7031 976.6563,473.1094 C976.7188,473.5156 976.75,473.6406 976.8906,473.7656 C977.0313,473.9063 977.2656,474.0156 977.4844,474.0156 C977.75,474.0156 978.0156,473.875 978.1875,473.6563 C978.2969,473.5 978.3281,473.3125 978.3281,472.8906 L978.3281,471.4688 C978.3281,471.0313 978.3125,470.9063 978.2188,470.75 C978.0625,470.4844 977.7813,470.3438 977.4844,470.3438 C977.1875,470.3438 976.9844,470.4375 976.7656,470.75 L976.5938,470.6719 Z " fill="#000000"/><text fill="#000000" font-family="sans-serif" font-size="14" lengthAdjust="spacing" textLength="154" x="994.75" y="479.8467">VehicleEventListener</text><line style="stroke:#181818;stroke-width:0.5;" x1="874" x2="1237" y1="491" y2="491"/><rect fill="none" height="6" style="stroke:#C82930;stroke-width:1.0;" width="6" x="881" y="501.6484"/><text fill="#000000" font-family="sans-serif" font-size="14" lengthAdjust="spacing" textLength="303" x="893" y="507.9951">vehicleEventService: VehicleEventService</text><line style="stroke:#181818;stroke-width:0.5;" x1="874" x2="1237" y1="515.2969" y2="515.2969"/><ellipse cx="884" cy="528.9453" fill="#84BE84" rx="3" ry="3" style="stroke:#038048;stroke-width:1.0;"/><text fill="#000000" font-family="sans-serif" font-size="14" lengthAdjust="spacing" textLength="339" x="893" y="532.292">listenToEvent(data: EventDto): Promise&lt;void&gt;</text></g><!--MD5=[7abae2077d9ee141c782ac58c26d2205]
class VehicleEventModule--><g id="elem_VehicleEventModule"><rect codeLine="69" fill="#F1F1F1" height="48" id="VehicleEventModule" rx="2.5" ry="2.5" style="stroke:#181818;stroke-width:0.5;" width="178" x="1273.5" y="475.5"/><ellipse cx="1288.5" cy="491.5" fill="#ADD1B2" rx="11" ry="11" style="stroke:#181818;stroke-width:1.0;"/><path d="M1290.8438,487.1719 C1289.9063,486.7344 1289.3125,486.5938 1288.4375,486.5938 C1285.8125,486.5938 1283.8125,488.6719 1283.8125,491.3906 L1283.8125,492.5156 C1283.8125,495.0938 1285.9219,496.9844 1288.8125,496.9844 C1290.0313,496.9844 1291.1875,496.6875 1291.9375,496.1406 C1292.5156,495.7344 1292.8438,495.2813 1292.8438,494.8906 C1292.8438,494.4375 1292.4531,494.0469 1291.9844,494.0469 C1291.7656,494.0469 1291.5625,494.125 1291.375,494.3125 C1290.9219,494.7969 1290.9219,494.7969 1290.7344,494.8906 C1290.3125,495.1563 1289.625,495.2813 1288.8594,495.2813 C1286.8125,495.2813 1285.5156,494.1875 1285.5156,492.4844 L1285.5156,491.3906 C1285.5156,489.6094 1286.7656,488.2969 1288.5,488.2969 C1289.0781,488.2969 1289.6875,488.4531 1290.1563,488.7031 C1290.6406,488.9844 1290.8125,489.2031 1290.9063,489.6094 C1290.9688,490.0156 1291,490.1406 1291.1406,490.2656 C1291.2813,490.4063 1291.5156,490.5156 1291.7344,490.5156 C1292,490.5156 1292.2656,490.375 1292.4375,490.1563 C1292.5469,490 1292.5781,489.8125 1292.5781,489.3906 L1292.5781,487.9688 C1292.5781,487.5313 1292.5625,487.4063 1292.4688,487.25 C1292.3125,486.9844 1292.0313,486.8438 1291.7344,486.8438 C1291.4375,486.8438 1291.2344,486.9375 1291.0156,487.25 L1290.8438,487.1719 Z " fill="#000000"/><text fill="#000000" font-family="sans-serif" font-size="14" lengthAdjust="spacing" textLength="146" x="1302.5" y="496.3467">VehicleEventModule</text><line style="stroke:#181818;stroke-width:0.5;" x1="1274.5" x2="1450.5" y1="507.5" y2="507.5"/><line style="stroke:#181818;stroke-width:0.5;" x1="1274.5" x2="1450.5" y1="515.5" y2="515.5"/></g><!--MD5=[58cce8e5c3db329f74602bb34e949653]
class AppModule--><g id="elem_AppModule"><rect codeLine="70" fill="#F1F1F1" height="48" id="AppModule" rx="2.5" ry="2.5" style="stroke:#181818;stroke-width:0.5;" width="113" x="156" y="624"/><ellipse cx="171" cy="640" fill="#ADD1B2" rx="11" ry="11" style="stroke:#181818;stroke-width:1.0;"/><path d="M173.3438,635.6719 C172.4063,635.2344 171.8125,635.0938 170.9375,635.0938 C168.3125,635.0938 166.3125,637.1719 166.3125,639.8906 L166.3125,641.0156 C166.3125,643.5938 168.4219,645.4844 171.3125,645.4844 C172.5313,645.4844 173.6875,645.1875 174.4375,644.6406 C175.0156,644.2344 175.3438,643.7813 175.3438,643.3906 C175.3438,642.9375 174.9531,642.5469 174.4844,642.5469 C174.2656,642.5469 174.0625,642.625 173.875,642.8125 C173.4219,643.2969 173.4219,643.2969 173.2344,643.3906 C172.8125,643.6563 172.125,643.7813 171.3594,643.7813 C169.3125,643.7813 168.0156,642.6875 168.0156,640.9844 L168.0156,639.8906 C168.0156,638.1094 169.2656,636.7969 171,636.7969 C171.5781,636.7969 172.1875,636.9531 172.6563,637.2031 C173.1406,637.4844 173.3125,637.7031 173.4063,638.1094 C173.4688,638.5156 173.5,638.6406 173.6406,638.7656 C173.7813,638.9063 174.0156,639.0156 174.2344,639.0156 C174.5,639.0156 174.7656,638.875 174.9375,638.6563 C175.0469,638.5 175.0781,638.3125 175.0781,637.8906 L175.0781,636.4688 C175.0781,636.0313 175.0625,635.9063 174.9688,635.75 C174.8125,635.4844 174.5313,635.3438 174.2344,635.3438 C173.9375,635.3438 173.7344,635.4375 173.5156,635.75 L173.3438,635.6719 Z " fill="#000000"/><text fill="#000000" font-family="sans-serif" font-size="14" lengthAdjust="spacing" textLength="81" x="185" y="644.8467">AppModule</text><line style="stroke:#181818;stroke-width:0.5;" x1="157" x2="268" y1="656" y2="656"/><line style="stroke:#181818;stroke-width:0.5;" x1="157" x2="268" y1="664" y2="664"/></g><!--MD5=[807550dd2d49a98de3f9bdd12e289437]
@startuml
class EventDto {
    +event_name: string
    +vehicle_id: string
    +vehicle_title: string
    +zipcode: string
    +date: Date
    +quantity: number
}
enum Event {
    DRIVE
    SERVICE
}
class EventsEntity {
    +id: string
    +event_name: string
    +vehicle_id: string
    +vehicle_title: string
    +zipcode: string
    +date: Date
    +quantity: number
}
class EventNormalizer {
    -event_name: string
    -vehicle_id: string
    -vehicle_title: string
    -zipcode: string
    -date: Date
    -quantity: number
    +normalize(): EventDto
}
class EventSummaryDto {
    +vehicle_id: string
    +vehicle_title: string
    +zipcode: string
    +quantity: number
}
class VehicleEventService {
    -entityRepository: Repository<EventsEntity>
    -entityManager: EntityManager
    +create(entity: EventDto): Promise<EventDto>
    +totalBefore(date: Date): Promise<EventSummaryDto[]>
}
class EventSourceService {
    -vehicleEventService: VehicleEventService
    -entityRepository: Repository<EventsEntity>
    -eventEmitter: EventEmitter2
    +validate(filePath: any): this
    +extract(filePath: string): Promise<boolean>
    -dispatchRow(row: any): Promise<void>
}
class EventFacadeService {
    -eventSourceService: EventSourceService
    +fill(filePath: string): Promise<boolean>
}
class FormatHelper {
    +toString(eventData: EventSummaryDto): string | void
}
class VehicleEventCommand {
    -eventFacade: EventFacadeService
    -vehicleEventService: VehicleEventService
    -formatHelper: FormatHelper
    +run(filename: string, date: string): Promise<void>
    -{static} sanitize(input: any): string
}
class VehicleEventListener {
    -vehicleEventService: VehicleEventService
    +listenToEvent(data: EventDto): Promise<void>
}
class VehicleEventModule
class AppModule
@enduml

PlantUML version 1.2022.13beta7(Unknown compile time)
(GPL source distribution)
Java Runtime: Java(TM) SE Runtime Environment
JVM: Java HotSpot(TM) 64-Bit Server VM
Default Encoding: UTF-8
Language: en
Country: US
--></g></svg>